<svg width="48" height="48" viewBox="0 0 48 48" fill="none" xmlns="http://www.w3.org/2000/svg">
<path fill-rule="evenodd" clip-rule="evenodd" d="M20.6437 37.6473C20.6437 37.8419 20.7895 38 20.969 38H25.6075C25.7871 38 25.932 37.8419 25.932 37.6473V23.8899H29.2947C29.4632 23.8899 29.6045 23.7496 29.6182 23.5668L29.9417 19.4219C29.9581 19.2164 29.8086 19.0396 29.6182 19.0396H25.932V16.0989C25.932 15.4093 26.4478 14.8512 27.0838 14.8512H29.6747C29.8551 14.8512 30 14.6932 30 14.4986V10.3527C30 10.1581 29.8551 10 29.6747 10H25.2968C22.7269 10 20.6437 12.2582 20.6437 15.0429V19.0396H18.3253C18.1458 19.0396 18 19.1977 18 19.3923V23.5372C18 23.7328 18.1458 23.8899 18.3253 23.8899H20.6437V37.6473Z" fill="#6A6A6A"/>
</svg>
