<svg width="60" height="60" viewBox="0 0 60 60" fill="none" xmlns="http://www.w3.org/2000/svg">
<path fill-rule="evenodd" clip-rule="evenodd" d="M56 30C56 44.3594 44.3594 56 30 56C15.6406 56 4 44.3594 4 30C4 15.6406 15.6406 4 30 4C44.3594 4 56 15.6406 56 30ZM0 30C3.8147e-06 13.4315 13.4315 -2.62268e-06 30 0C46.5685 1.44847e-06 60 13.4315 60 30C60 46.5685 46.5685 60 30 60C13.4315 60 0 46.5685 0 30ZM47.5789 34.322L30.0004 16.7435L12.4219 34.322L16.0173 37.9175L30.0004 23.9344L43.9834 37.9175L47.5789 34.322Z" fill="#5F5F5F"/>
</svg>
